<svg xmlns="http://www.w3.org/2000/svg"  viewBox="0 0 24 24" width="24px" height="24px"><path d="M 15 2 C 14.449 2 14 2.449 14 3 L 14 7 L 19 7 L 19 3 C 19 2.449 18.551 2 18 2 L 15 2 z M 14 9 L 14 13 C 14 13.551 14.449 14 15 14 L 18 14 C 18.551 14 19 13.551 19 13 L 19 9 L 14 9 z M 12 9.0253906 C 8.645 9.2813906 6 12.079 6 15.5 C 6 19.09 8.91 22 12.5 22 C 15.982 22 18.816375 19.260312 18.984375 15.820312 C 18.674375 15.928313 18.346 16 18 16 L 15 16 C 13.346 16 12 14.654 12 13 L 12 9.0253906 z"/></svg>