<?xml version="1.0" standalone="no"?>
<svg version="1.1" id="Layer_2" xmlns="http://www.w3.org/2000/svg" xmlns:xlink="http://www.w3.org/1999/xlink" x="0px" y="0px" viewBox="0 0 2000 2000" enable-background="new 0 0 2000 2000" xml:space="preserve">
<path id="_color_x5F_12" fill="#4F8EBA" d="M1885,1217.2v59l-842.9,486.6L115,1227.5v-59l927.1,535.3L1885,1217.2z M1514.5,1366.9
	l-236.6,136.6l-131.4-75.9l236.6-136.6L1514.5,1366.9z M1284.8,1489.5l205.5-118.7l-114.2-65.9l-205.5,118.7L1284.8,1489.5z
	 M1065.2,1371.3L766,1198.6v12.6l299.2,172.7l149.6-86.4v-12.6L1065.2,1371.3z M1286.8,1013v230.3l-22.1,12.9v-230.3L965.5,853.1
	l22.1-12.9L1286.8,1013z M1186.8,1211.2l-43.1,24.9l-142.1-82v-6l142.1,82l37.9-21.9l-54.1-31.3L1186.8,1211.2z M1496.3,1126.6
	l-0.3-5.1l3,55.8l4.1,2.4c5.5,3.2,8.9,9.1,8.9,15.5v90.2c0,5.7-2.6,10.5-6.4,13.7l0.9,16.8c7.2,9.3,18.6-5.9,19-4.7
	s5.5-167.1,8.5-163.8c3,3.4,18.2,193,18.2,193c11.4,7.2,19-2.5,19-2.5l10-213.3l-0.1,2.2C1551.9,1133.5,1518.1,1130.3,1496.3,1126.6
	z M1651.9,979.1l-52.6,30.3l35,20.2l52.6-30.3L1651.9,979.1z"></path>
<path id="color_x5F_11" fill="#E6F4F7" d="M381.1,1217.7c0.1,0,0.1,0,0.2,0s0.2,0,0.3-0.1C381.4,1217.6,381.3,1217.6,381.1,1217.7z
	 M381.9,1217.4c0,0-0.1,0-0.1,0.1c-0.1,0-0.1,0-0.2,0.1C381.7,1217.5,381.8,1217.5,381.9,1217.4z M387.2,1084.9
	c-0.6,0.4-1.3,0.7-1.9,1.1C386,1085.7,386.6,1085.3,387.2,1084.9z M382.4,1217.2c-0.1,0-0.1,0.1-0.2,0.1s-0.1,0.1-0.2,0.1
	C382.2,1217.3,382.3,1217.3,382.4,1217.2z M384.8,1086.3c-0.5,0.2-0.9,0.4-1.4,0.7C383.8,1086.7,384.3,1086.5,384.8,1086.3z
	 M377.9,1026.4c0.2,0,0.4,0,0.7,0C378.4,1026.4,378.1,1026.4,377.9,1026.4z M382.6,1217.1c0,0-0.1,0-0.1,0.1
	C382.5,1217.1,382.6,1217.1,382.6,1217.1z M378.4,1088.8c-0.4,0.1-0.8,0.2-1.2,0.3C377.6,1089,378,1088.9,378.4,1088.8z
	 M379.1,1088.6c0.6-0.2,1.2-0.4,1.8-0.6C380.3,1088.2,379.7,1088.4,379.1,1088.6z M373,1089.9c0.5-0.1,1.1-0.2,1.6-0.3
	C374.1,1089.8,373.5,1089.9,373,1089.9z M381.1,1026.1c0.1,0,0.2,0,0.4-0.1C381.3,1026.1,381.2,1026.1,381.1,1026.1z M372.2,1090
	c-0.3,0-0.6,0.1-0.9,0.1C371.6,1090.1,371.9,1090.1,372.2,1090z M383.4,1216.6L383.4,1216.6c-0.2,0.1-0.3,0.2-0.4,0.3
	c0,0-0.1,0-0.1,0.1C383.1,1216.8,383.3,1216.7,383.4,1216.6z M381,1217.7c-0.3,0.1-0.6,0.1-0.9,0.1c0.2,0,0.3,0,0.5,0
	c0.1,0,0.1,0,0.2,0C380.9,1217.7,380.9,1217.7,381,1217.7z M382.8,1087.2c-0.5,0.2-1,0.4-1.5,0.6
	C381.8,1087.6,382.3,1087.4,382.8,1087.2z M390.7,1072.8c0.1,0,0.2,0,0.2,0C390.9,1072.8,390.8,1072.8,390.7,1072.8z M393.3,1072.4
	h-0.1C393.2,1072.4,393.2,1072.4,393.3,1072.4z M394.7,1072.1c-0.1,0-0.2,0-0.3,0.1C394.4,1072.2,394.5,1072.2,394.7,1072.1z
	 M389.2,1073.1c-0.1,0-0.2,0-0.3,0C389,1073.1,389.1,1073.1,389.2,1073.1z M388.4,1073.2c-0.1,0-0.2,0-0.3,0
	C388.3,1073.2,388.4,1073.2,388.4,1073.2z M396,1071.9c-0.1,0-0.3,0.1-0.4,0.1C395.7,1071.9,395.8,1071.9,396,1071.9z M390,1072.9
	c-0.1,0-0.2,0-0.3,0C389.8,1073,389.9,1073,390,1072.9z M400.1,1071c-0.1,0-0.3,0.1-0.4,0.1C399.8,1071.1,399.9,1071,400.1,1071z
	 M396.9,1071.7c0.1,0,0.3-0.1,0.4-0.1C397.2,1071.6,397,1071.7,396.9,1071.7z M402.2,1019.5c-0.2,0.1-0.3,0.2-0.5,0.3
	C401.8,1019.7,402,1019.6,402.2,1019.5z M387.1,1073.4C387.1,1073.4,387,1073.4,387.1,1073.4C387,1073.4,387.1,1073.4,387.1,1073.4z
	 M401.5,1070.7c-0.1,0-0.2,0.1-0.3,0.1C401.2,1070.7,401.4,1070.7,401.5,1070.7z M383.7,1025.7c0.2,0,0.5-0.1,0.7-0.1
	C384.2,1025.6,384,1025.6,383.7,1025.7z M398.7,1071.3c-0.2,0-0.3,0.1-0.5,0.1C398.4,1071.4,398.5,1071.4,398.7,1071.3z
	 M375.4,1026.5c0.2,0,0.3,0,0.5,0C375.7,1026.5,375.6,1026.5,375.4,1026.5z M1509.8,1294.3c0.1-0.1,0.1-0.2,0.2-0.4
	C1509.9,1294,1509.8,1294.1,1509.8,1294.3z M1510.5,1292.9c-0.1,0.1-0.1,0.3-0.2,0.4C1510.3,1293.2,1510.4,1293.1,1510.5,1292.9z
	 M1509.4,1294.8c-0.1,0.1-0.1,0.2-0.2,0.3C1509.3,1295,1509.4,1294.9,1509.4,1294.8z M1525.7,1310.7L1525.7,1310.7L1525.7,1310.7z
	 M1525.7,1311L1525.7,1311L1525.7,1311z M387.9,1073.2c-0.1,0-0.1,0-0.2,0C387.7,1073.3,387.8,1073.3,387.9,1073.2z M1525.7,1310.3
	L1525.7,1310.3L1525.7,1310.3z M1525.6,1311.2L1525.6,1311.2L1525.6,1311.2z M1512.1,1286.6c0-0.4,0-0.8,0-1.2
	C1512.1,1285.8,1512.1,1286.2,1512.1,1286.6z M1511.4,1290.4c-0.1,0.3-0.2,0.5-0.3,0.8C1511.2,1291,1511.3,1290.7,1511.4,1290.4z
	 M1507,1297.9l0.1-0.1L1507,1297.9z M1512,1287c0,0.3,0,0.5-0.1,0.8C1512,1287.5,1512,1287.2,1512,1287z M1511.5,1290
	c0.1-0.2,0.1-0.4,0.2-0.7C1511.6,1289.5,1511.6,1289.8,1511.5,1290z M1511.8,1288.9c0-0.2,0.1-0.5,0.1-0.7
	C1511.8,1288.4,1511.8,1288.6,1511.8,1288.9z M1510.7,1292.4c0.1-0.2,0.2-0.4,0.2-0.6C1510.9,1292,1510.8,1292.2,1510.7,1292.4z
	 M1169.2,859.2c-2.2-3.3-4.5-6.4-6.9-9.3C1164.7,852.9,1167,856,1169.2,859.2z M1171.7,863.2c-0.8-1.3-1.6-2.7-2.5-4
	C1170.1,860.5,1170.9,861.9,1171.7,863.2z M1174.1,867.3c-0.8-1.4-1.5-2.7-2.3-4.1C1172.5,864.5,1173.3,865.9,1174.1,867.3z
	 M1152.9,840.2c1.1,1,2.2,2,3.2,3.1C1155,842.2,1154,841.1,1152.9,840.2z M375.3,1089.5c0.4-0.1,0.8-0.2,1.2-0.2
	C376.1,1089.4,375.7,1089.5,375.3,1089.5z M1162.3,849.9c-2-2.4-4-4.6-6.2-6.7C1158.2,845.3,1160.3,847.6,1162.3,849.9z
	 M1151.2,838.7c-1.1-0.9-2.2-1.9-3.4-2.7C1148.9,836.9,1150.1,837.8,1151.2,838.7z M1127.4,809.2c-0.9-1.5-1.6-3-2.3-4.6
	C1125.8,806.2,1126.6,807.7,1127.4,809.2z M1123.8,825.3c-1-0.1-2.1-0.2-3.1-0.2C1121.7,825.1,1122.8,825.1,1123.8,825.3z
	 M1131.8,815.4c1.1,1.3,2.2,2.5,3.4,3.6C1134,817.9,1132.8,816.7,1131.8,815.4z M1128.7,826.2c-1.1-0.3-2.2-0.5-3.3-0.7
	C1126.5,825.7,1127.5,825.9,1128.7,826.2z M1128.7,826.2c1.1,0.3,2.2,0.6,3.4,1C1130.9,826.8,1129.8,826.5,1128.7,826.2z
	 M1139,830.3c-1.2-0.6-2.4-1.2-3.5-1.7C1136.6,829.1,1137.8,829.7,1139,830.3z M1127.4,809.2c0.9,1.5,1.8,2.9,2.8,4.3
	C1129.2,812.1,1128.3,810.7,1127.4,809.2z M1473.5,1256.7c-0.8-1.1-1.7-2.2-2.6-3.2C1471.8,1254.6,1472.6,1255.6,1473.5,1256.7z
	 M307.2,1163.7L307.2,1163.7c0.3,0.4,0.6,0.9,1.1,1.5c-0.2-0.3-0.4-0.5-0.5-0.7c-0.1-0.1-0.1-0.2-0.2-0.3
	C307.4,1164,307.3,1163.8,307.2,1163.7z M387.4,1073.3c-0.1,0-0.1,0-0.1,0S387.3,1073.3,387.4,1073.3z M370.6,1212.1
	C370.6,1212.1,370.7,1212.1,370.6,1212.1C370.7,1212.1,370.6,1212.1,370.6,1212.1z M370,1212.4
	C369.9,1212.4,369.9,1212.4,370,1212.4C369.9,1212.4,369.9,1212.4,370,1212.4z M384.7,1215.6c-0.4,0.3-0.8,0.7-1.3,1
	C383.9,1216.3,384.3,1215.9,384.7,1215.6z M1430.9,1198.5c0.1,0.9,0.3,1.8,0.5,2.6C1431.2,1200.3,1431,1199.4,1430.9,1198.5z
	 M386.2,1214.4L386.2,1214.4L386.2,1214.4L386.2,1214.4z M370.3,1212.2C370.3,1212.2,370.4,1212.2,370.3,1212.2
	C370.4,1212.2,370.3,1212.2,370.3,1212.2z M310.1,1167.2c0.3,0.3,0.6,0.6,1,0.8C310.7,1167.7,310.4,1167.5,310.1,1167.2z
	 M311.4,1168.2c0.8,0.6,1.6,1.1,2.5,1.6c-0.5-0.2-0.9-0.5-1.3-0.8c-0.1-0.1-0.2-0.2-0.4-0.2C311.9,1168.6,311.7,1168.4,311.4,1168.2
	z M366,1090.2c-0.1,0-0.2,0-0.3,0C365.8,1090.2,365.9,1090.2,366,1090.2z M310.1,1167.1c-0.1-0.1-0.1-0.1-0.2-0.2
	c-0.2-0.2-0.4-0.4-0.6-0.6C309.5,1166.6,309.8,1166.8,310.1,1167.1z M308.4,1165.3l-0.1-0.1C308.3,1165.2,308.3,1165.3,308.4,1165.3
	z M308.4,1165.4c0.2,0.2,0.3,0.4,0.5,0.6l0.1,0.1C308.8,1165.9,308.6,1165.6,308.4,1165.4z M364.1,1090c0.1,0,0.2,0,0.4,0
	C364.4,1090,364.3,1090,364.1,1090z M1439.7,1180.9c1-0.1,2.1-0.1,3.3,0.1C1441.9,1180.8,1440.8,1180.7,1439.7,1180.9z
	 M1444.8,1181.3c1.1,0.3,2.2,0.7,3.3,1.3C1447,1182.1,1445.9,1181.6,1444.8,1181.3z M1417.2,1231.7c1.2-0.7,2.4-1.2,3.7-1.7
	C1419.6,1230.4,1418.4,1231,1417.2,1231.7z M1477.8,1262.8c6,9.1,10.8,19.2,13.7,29.3l0,0
	C1488.6,1282.1,1483.9,1271.9,1477.8,1262.8z M1413.8,1234c0.6-0.5,1.1-0.9,1.7-1.3C1415,1233.1,1414.4,1233.5,1413.8,1234z
	 M1506.4,1298.5l-0.1,0.1C1506.4,1298.5,1506.4,1298.5,1506.4,1298.5z M1449.1,1183.1c0.1,0.1,0.3,0.2,0.4,0.2
	c1.4,0.8,2.7,1.8,4,2.8c-1.3-1.1-2.7-2-4-2.8C1449.4,1183.3,1449.3,1183.2,1449.1,1183.1z M1474.1,1257.6c0.8,1.1,1.6,2.2,2.4,3.3
	C1475.8,1259.8,1475,1258.7,1474.1,1257.6z M1470.9,1253.5c-1.4-1.7-2.9-3.4-4.5-5C1468,1250.1,1469.5,1251.8,1470.9,1253.5z
	 M1433.8,1208.2c0.7,1.5,1.4,3.1,2.3,4.6C1435.2,1211.3,1434.4,1209.8,1433.8,1208.2z M1436.1,1212.8c0.9,1.5,1.8,2.9,2.8,4.3
	C1437.9,1215.7,1436.9,1214.3,1436.1,1212.8z M1467.3,1222.6c0.5-1.3,0.8-2.7,1-4.3C1468.1,1219.8,1467.8,1221.3,1467.3,1222.6z
	 M1468.4,1216.1c0,0.8,0,1.5-0.1,2.2C1468.4,1217.5,1468.4,1216.8,1468.4,1216.1c0-1.5-0.1-3-0.4-4.6
	C1468.3,1213,1468.4,1214.6,1468.4,1216.1z M1440.4,1219c0.5,0.6,1.1,1.3,1.7,1.9C1441.5,1220.3,1440.9,1219.7,1440.4,1219z
	 M1461.5,1243.8c-1.1-1-2.2-1.9-3.3-2.8C1459.3,1241.8,1460.4,1242.8,1461.5,1243.8z M404.8,1018.1c-0.1,0-0.1,0.1-0.2,0.1
	C404.7,1018.2,404.8,1018.2,404.8,1018.1z M400.1,1020.5c0.2-0.1,0.4-0.2,0.6-0.3C400.5,1020.3,400.3,1020.4,400.1,1020.5z
	 M410.3,1014.6L410.3,1014.6L410.3,1014.6z M403.1,1019.1c0.1-0.1,0.3-0.1,0.4-0.2C403.4,1018.9,403.3,1019,403.1,1019.1z
	 M373.1,1026.5c-0.2,0-0.4,0-0.6,0C372.7,1026.4,372.9,1026.5,373.1,1026.5z M367.5,1026c0.1,0,0.3,0,0.4,0.1
	C367.8,1026,367.6,1026,367.5,1026z M370.6,1026.3c-0.2,0-0.4,0-0.6,0C370.3,1026.3,370.5,1026.3,370.6,1026.3z M368.6,1090.2
	c-0.2,0-0.3,0-0.5,0C368.3,1090.2,368.5,1090.2,368.6,1090.2z M394,1022.9c-0.3,0.1-0.5,0.2-0.8,0.3
	C393.5,1023.1,393.7,1023,394,1022.9z M398.5,1021.2c0.2-0.1,0.5-0.2,0.7-0.3C399,1021,398.7,1021.1,398.5,1021.2z M389.2,1024.4
	c0.2-0.1,0.5-0.1,0.7-0.2C389.7,1024.3,389.5,1024.3,389.2,1024.4z M391.3,1023.8c0.3-0.1,0.5-0.2,0.8-0.2
	C391.8,1023.7,391.5,1023.7,391.3,1023.8z M395.8,1022.3c-0.3,0.1-0.5,0.2-0.8,0.3C395.3,1022.5,395.6,1022.4,395.8,1022.3z
	 M365.7,1025.7c-0.2,0-0.4-0.1-0.6-0.1C365.4,1025.7,365.5,1025.7,365.7,1025.7z M396.8,1021.9c0.2-0.1,0.5-0.2,0.7-0.3
	C397.3,1021.7,397.1,1021.8,396.8,1021.9z M1284.8,1489.5l-17.7-10.2L1284.8,1489.5l22.1-12.8L1284.8,1489.5z M1279.4,1360.8
	l-12.1,7l-0.2,111.5l0.2-111.5L1279.4,1360.8z M1312.8,1473.3L1312.8,1473.3v-131.8l29.9-17.3l0,0l-29.9,17.3V1473.3z
	 M1342.7,1456.1L1342.7,1456.1l12.3-7.1L1342.7,1456.1z M1376.4,1436.6l-0.2-131.7L1376.4,1436.6L1376.4,1436.6z M1081.5,1150.4
	l86.7,50.1l-28.1-16.2L1081.5,1150.4z M983.8,1079.9l262.4,151.5v-202L983.8,877.9l262.4,151.5v202L983.8,1079.9z M370.4,1090.2
	c-0.3,0-0.5,0-0.8,0C369.9,1090.2,370.1,1090.2,370.4,1090.2z M1170.3,1310.6l-105.1,60.7L766,1198.6l299.2,172.7L1170.3,1310.6z
	 M1885,1217.2l-842.9,486.6L115,1168.6L323.8,1048c0.5,6.9,1.7,14.2,4.5,16.4c0,0,1.1,0.3,0.7-2.8c0,0,2.9,7.5,3.4,1.8
	c0,0,4.4,5.3,3.7,0c0,0,4.8,6.1,5.9,2.6c1.1-3.6-4.5-6.9-5-13.9c0,0,7.7,3,8.1-1.8c0,0-8.8-5.4-9.6-7.2c-0.2-0.5-0.6-0.9-1-1.3
	l16-9.2c-0.9,12.4-2.2,26.7-4,37.1l0,0c-0.2,1.4-0.5,2.7-0.7,3.9c0,0,0,0,0,0.1c-0.1,0.6-0.3,1.2-0.4,1.7l0,0
	c-0.1,0.5-0.2,1.1-0.4,1.5v0.1c-0.1,0.5-0.3,0.9-0.4,1.4c0,0.1,0,0.1-0.1,0.2c-0.1,0.4-0.2,0.8-0.4,1.1v0.1c-0.1,0.4-0.3,0.7-0.4,1
	c0,0.1-0.1,0.1-0.1,0.2c-0.1,0.3-0.3,0.6-0.4,0.9c0,0,8.2,6.2,19.8,7.8l0,0c1.1,5,1.7,8.2,1.7,8.2s0.1,0.6,0.2,1.7
	c-1.2,3.2-3.6,7.2-8.3,10.7c-9.4,6.9-17.7,12.7-23.3,26.4s-20.1,23.6-24.2,25.1c-0.6,0.2-1.4,0.5-2.2,0.9l0,0
	c0.1,0.2,0.2,0.4,0.3,0.6c-0.7-1.1-0.9-1.8-0.9-1.8c-7.3-1-12.9,11.1-12.8,15.2c0.1,4,3.9,7.7,8.7,14.1c4.8,6.4,3.5,23.9,17.5,27.5
	s15.5-0.1,18.3-7.5c1.7-4.4-2.1-7.4-5.4-11.6c-0.3-0.3-0.5-0.7-0.8-1c0-0.1-0.1-0.1-0.1-0.2c-0.2-0.4-0.5-0.7-0.7-1.1
	c0,0,0-0.1-0.1-0.1c-0.2-0.4-0.4-0.7-0.6-1.1c0-0.1-0.1-0.1-0.1-0.2c-0.2-0.4-0.4-0.8-0.5-1.2c0,0,0-0.1-0.1-0.1
	c-0.2-0.5-0.4-1-0.5-1.5c0-0.1,0-0.1,0-0.2c-0.1-0.5-0.2-1-0.3-1.5c-0.1-0.4-0.1-0.9-0.1-1.3c0-0.1,0-0.2,0-0.3c0-0.5,0-1.1,0-1.6
	l0,0c0.1-2.2,0.1-4,0-5.7l0,0c0,0,0,0,0-0.1c0,0,0,0,0-0.1c0-0.3-0.1-0.6-0.1-0.9c0-0.2,0-0.4-0.1-0.6c0-0.3-0.1-0.6-0.1-0.9
	c0-0.1,0-0.3-0.1-0.4l0,0c-0.3-1.9-0.8-3.4-1.2-4.5c-0.3-0.7-0.6-1.3-0.9-1.7c-0.2-0.3-0.3-0.4-0.4-0.5s-0.2-0.2-0.2-0.2
	c-0.1,0-0.3,0-0.4,0l0,0c1.4-4.2,26.5-24,35.3-34.1c-0.7,9-0.6,18.6,0.3,21.2c1.6,4.5,9.4,35,8.4,40.8c0,0,1.7,9,0.7,11.6
	c-0.1,0.3-0.2,0.6-0.4,0.9l0,0c-2.5,1.4-7,6.1-3,21.4c0,0,1,1.5,8.5,4.1c7.5,2.7,18,15.3,21.9,14.8s16,1,19.6-6.7s-5-8.6-10.4-13.8
	c-0.1-0.1-0.3-0.3-0.4-0.4c-1-1-2-2.1-3.1-3.4c-0.4-0.5-0.9-1-1.3-1.5l0,0c-0.4-0.5-0.9-1.1-1.3-1.6c-0.3-0.4-0.7-0.8-1-1.3
	c-0.7-0.9-1.4-1.7-2.1-2.6l0,0c-0.2-0.3-0.5-0.5-0.7-0.8c0,0,0,0,0-0.1c-0.2-0.3-0.4-0.5-0.7-0.8c0,0,0,0,0-0.1
	c-0.2-0.3-0.4-0.5-0.7-0.8l0,0l0,0c-1.9-2.2-3.6-4-4.8-4.9l0,0l0,0c-0.3-0.2-0.5-0.3-0.7-0.4l0,0c-0.1,0-0.2-0.1-0.3-0.1
	c-0.1,0-0.2,0-0.3,0c-0.2,0-0.4,0-0.5,0h-0.1c-0.1,0-0.3,0.1-0.4,0.1h-0.1c-0.1,0-0.3,0.1-0.4,0.2l0,0c-0.1,0-0.2,0.1-0.2,0.1l0,0
	c0-0.1,0-0.1,0-0.2c0.1-2.3-0.6-42.6-0.6-42.6l-1-49.3c0,0,0.1-4.3,0.2-9.8c2.1-1.7,5-5,8.8-11.1c3.6-5.9,6.6-17.8,8.9-30.8
	c6.1-1.6,11.9-3.9,13.4-6.9l-1.1-10.1l-4.1-39.3c3.7-2.9,5.1-5.2,4.9-5.2s-2.1-6.4-3.7-11.9l5-2.9c7.2,7.9,13.4,15.2,13.4,16.5
	c0,3.1,11.6,15.8,11.6,15.8s6.5,9.4,8.4,8.9s-1.2-5.4-1.2-5.4s3.2,3.3,5.4,3.8c2.2,0.6-2.7-6.3-2.7-6.3s5.8,3.3,7.7,3.3
	c2,0.1-2.3-5-2.3-5c5.5,1.6,8.5,0.3,4.7-1.3c-3.8-1.6-15.6-14.1-15.6-14.1c10,1.8,11.1-4.4,9-3.8s-15.2-2.7-15.2-2.7
	s-6.6-9.1-11.1-16.8l25.5-14.7l248.3,146l179.2-103.8l0.1-19.1l16.4-9.3l1.1-196.6c0-6-3.1-11.6-8.3-14.6l-47.2-27.6l113.3-65.4
	l131.7,76v78.7c0,6.4,3.4,12.3,8.9,15.5L1177,897c11.9,6.9,26.8-1.7,26.8-15.5v-58.1l291.6,168.4c-2.5,38-7.1,117.7-7.1,117.7l2.7,1
	c-1.8,5.2-5,14.6-4,19.9c0.7,3.8,6.1,8.7,10.5,11.7l-0.9-17.4l2.8,52.3l4.1,2.4l-78.2-45.1c-11.9-6.9-26.8,1.7-26.8,15.5v90.2
	c0,6.4,3.4,12.3,8.9,15.5l78.2,45.1c7,4,15,2.7,20.4-1.8l0,0l0.9,16.6c-0.9,7.5-2,17.1-1.8,18.1c0.3,1.6,5.7,3.8,14.6,2.2
	c8.9-1.6,20.3-21.3,21.9-25.7c1.2-3.3-9.6-3.4-15.4-3.3c1.1-25.8,5.5-162.7,8.2-159.6c3,3.4,18.2,193,18.2,193s0-0.1,0-0.3
	c-0.5,4.6-1.8,17.7,0.1,18.5c2.2,1,36.2,4.4,46.3-7.6c10.2-12.1-26-12.4-26-12.4s-0.6-0.6-1.4-1.3l10-212.7c0,0-0.1-21.1-0.4-48
	c4.2,2.8,9.9,4.2,16.9,1.7c5.7-2,12.3-8.4,18.7-16.2L1885,1217.2z M965.5,1083.4l74.1,42.8l-37.9,21.9v6l142.1,82l43.1-24.9l77.9,45
	l22.1-12.9V1013L987.6,840.3l-22.1,12.9V1083.4z M1065.1,1383.9l149.6-86.4v-12.6l0,0l-299.1-172.8L766,1198.6v12.6L1065.1,1383.9z
	 M1514.5,1366.9l-131.4-75.9l-236.6,136.6v30.3l131.4,75.9l236.6-136.6V1366.9z"></path>
<path id="color_x5F_10" fill="#F2F9FD" d="M1376.2,1304.9l0.2,131.7l-33.7,19.5v-131.8L1376.2,1304.9z M1267.3,1367.8l-0.2,111.5
	l17.7,10.2l28-16.2v-131.8L1267.3,1367.8z M983.8,877.9v202l262.4,151.5v-202L983.8,877.9z"></path>
<path id="color_x5F_9" fill="#BEDCEB" d="M1520.9,891.8c3.2-14.3,24-14.1,24-14.1s7-5.8,15.5-5.7l-331.2-191.2
	c26.9-61.4,92.4-78,168.7-33.9c75.7,43.7,140.4,134.5,167.3,225.9c2.1,0.7,4.3,1.8,6.4,3.6c12.4,10.5,2.8,24.1,2.8,24.1
	s2.9,9.3,5,19.1c36.1-1.5,68.4-30.8,68.4-71.3V488.4c0-25.5-13.6-49-35.6-61.7l-311.5-179.9c-47.5-27.4-106.9,6.9-106.9,61.7v359.7
	c0,25.5,13.6,49,35.6,61.7l290.3,167.6C1519.9,896,1520.4,894,1520.9,891.8z M1398.4,441.5c41.7,24,75.3,82.3,75.2,130.2
	c-0.1,47.9-34,67.2-75.7,43.1c-41.7-24-75.3-82.3-75.2-130.2C1322.9,436.8,1356.8,417.5,1398.4,441.5z M867.3,792.2l-1,181.1
	L631.8,836.2l0.9-181.2L867.3,792.2z M626.5,858.7l-111.9,63.8l222.4,130l112-63.8L626.5,858.7z M585,970.8l-43.6,24.8l69.5,40.2
	l43.2-24.5L585,970.8z"></path>
<path id="color_x5F_8" fill="#4F8EBA" d="M616.4,632.8l-1,206.4l267.1,156.2l1.1-206.3L616.4,632.8z M866.3,973.2l-234.5-137
	l0.9-181.2l234.6,137.2L866.3,973.2z M615.4,839.2L436.2,941.4l267.1,156.2l179.2-102.2L615.4,839.2z M610.9,1035.8l-69.5-40.2
	l43.6-24.8l69.2,40.5L610.9,1035.8z M514.6,922.5l111.9-63.8l222.4,130l-112,63.8L514.6,922.5z"></path>
<path id="color_x5F_7" fill="#E8666A" d="M1322.8,484.6c0.1-47.9,34-67.2,75.7-43.1c41.7,24,75.3,82.3,75.2,130.2
	c-0.1,47.9-34,67.2-75.7,43.1C1356.3,590.8,1322.6,532.5,1322.8,484.6z M1565.1,872.7c-26.9-91.4-91.6-182.2-167.3-225.9
	c-76.4-44.1-141.9-27.5-168.7,33.9L1560.3,872C1561.9,872,1563.5,872.2,1565.1,872.7z M872.2,566.7V657c0,13.8-14.9,22.4-26.8,15.5
	l-78.2-45.1c-5.5-3.2-8.9-9.1-8.9-15.5v-90.2c0-13.8,14.9-22.4,26.8-15.5l78.2,45.1C868.8,554.4,872.2,560.3,872.2,566.7z
	 M790.7,565.8c0,12,8.4,26.6,18.9,32.7c10.4,6,18.9,1.2,19-10.8c0-12-8.4-26.6-18.9-32.7C799.2,548.9,790.7,553.8,790.7,565.8z
	 M851.6,663.8c-6.6-23.1-23-46.2-42.1-57.3c-19.2-11.1-35.6-6.9-42.3,8.5L851.6,663.8z M1203.5,791.6v90.2
	c0,13.8-14.9,22.4-26.8,15.5l-78.2-45.1c-5.5-3.2-8.9-9.1-8.9-15.5v-90.2c0-13.8,14.9-22.4,26.8-15.5l78.2,45.1
	C1200,779.3,1203.5,785.2,1203.5,791.6z M1121.9,790.6c0,12,8.4,26.6,18.9,32.7c10.4,6,18.9,1.2,19-10.8s-8.4-26.6-18.9-32.7
	C1130.5,773.8,1122,778.6,1121.9,790.6z M1182.9,888.6c-6.6-23.1-23-46.2-42.1-57.3c-19.2-11.1-35.6-6.9-42.3,8.5L1182.9,888.6z
	 M1512.1,1195.2v90.2c0,13.8-14.9,22.4-26.8,15.5l-78.2-45.1c-5.5-3.2-8.9-9.1-8.9-15.5V1150c0-13.8,14.9-22.4,26.8-15.5l78.2,45.1
	C1508.7,1182.9,1512.1,1188.8,1512.1,1195.2z M1430.6,1194.2c0,12,8.4,26.6,18.9,32.7s18.9,1.2,19-10.8c0-12-8.4-26.6-18.9-32.7
	C1439.1,1177.4,1430.6,1182.2,1430.6,1194.2z M1491.6,1292.2c-6.6-23.1-23-46.2-42.1-57.3c-19.2-11.1-35.6-6.9-42.3,8.5
	L1491.6,1292.2z"></path>
<path id="color_x5F_6" fill="#FFFFFF" d="M809.6,555c10.4,6,18.9,20.7,18.9,32.7s-8.5,16.9-19,10.8s-18.9-20.7-18.9-32.7
	C790.7,553.8,799.2,548.9,809.6,555z M767.2,615l84.5,48.8c-6.6-23.1-23-46.2-42.1-57.3C790.3,595.4,773.9,599.6,767.2,615z
	 M1121.9,790.6c0,12,8.4,26.6,18.9,32.7s18.9,1.2,19-10.8c0-12-8.4-26.6-18.9-32.7C1130.5,773.8,1122,778.6,1121.9,790.6z
	 M1098.4,839.8l84.5,48.8c-6.6-23.1-23-46.2-42.1-57.3C1121.6,820.2,1105.2,824.4,1098.4,839.8z M1430.6,1194.2
	c0,12,8.4,26.6,18.9,32.7c10.4,6,18.9,1.2,19-10.8s-8.4-26.6-18.9-32.7C1439.1,1177.4,1430.6,1182.2,1430.6,1194.2z M1407.1,1243.4
	l84.5,48.8c-6.6-23.1-23-46.2-42.1-57.3C1430.2,1223.8,1413.8,1228,1407.1,1243.4z M349.9,953.4c0,0,30.6-23.9,51.9-18.5l2,12.8
	c0,0,1.3,9.3,2.8,19.3c-9.3,0.8-42.9,4.6-54.6,18.1C352.3,976.6,353.3,966.3,349.9,953.4z"></path>
<path id="color_x5F_5" fill="#FFD2BB" d="M1497.2,1142.4c-4.4-3-9.8-7.9-10.5-11.7c-1-5.3,2.2-14.7,4-19.9l5.1,1.9
	c0.1,5.2,0.2,8.1,0.2,8.1v0.9L1497.2,1142.4z M1557.7,909.6c-5.8,2.3-1.8,15.4-1.8,15.4h-3.1l-0.1-4.6c0,0,1.6-5-7.8-9.9
	s-0.8,10.9-0.8,10.9c-2.2,8.1-9.7,4.4-16,4.4c2.1,4,4.3,7.4,5.2,9.4c0.6,1.2,2.5,2.4,5.1,3.6v4.8l21,3.5c-0.3-1.2-0.5-2.4-0.8-3.5
	c9.6,1.1,18.7,0.9,21.2-2c1.7-2,1.8-6.9,1.1-12.5c-1.1-0.2-2.2-1.8-3.1-0.6c-1.4,1.9-3.4-0.1-2.6-5.1c0.4-2.5,2.3-3.4,4.1-3.6
	c-2.1-9.9-5-19.2-5-19.2l0,0l0,0C1574.7,904.6,1563.6,907.3,1557.7,909.6z M363,879.1c0,0,0.7,1,1.9,2.6c0.5,5.5,1.6,18.5,0.6,23
	c0.8,0.2,1.5,0.5,1.6,1.1c0.2,1.5,24.5,18.4,16.1-6.9c-1,0.5-2,1-2.8,1.5c-0.3-1.6-0.7-3.3-1.1-4.9c1.7,1,3.4,1.8,5.2,2.4
	c1.4,0.5,2.9,0.8,4.4,0.9c4.1,0.2,7.1-1.2,9.3-3.7c4.9-5.7,5.7-17.1,4.8-28.3c-0.6-2.7-1.6-5.1-2.5-6.7c-1.7,1.6-5,3.2-11.2,2.1
	c0,0-6.5,4.9-16.2,1.7c0,0,0.2,4.5-4.4,6c-4.6,1.6,0.4,9.8,0.4,9.8s-2.3,1.6-5-3.6c-2.7-5.2-3.6-3.9-4-3.7c-0.2,0.1-1.5-1.6-2.4-3.8
	c-1.5-0.2-2.9,0.5-3.1,3.6C354.3,879,363,879.1,363,879.1z M462.4,1024.5c-3.8-1.6-15.6-14.1-15.6-14.1c10,1.8,11.1-4.4,9-3.8
	s-15.2-2.7-15.2-2.7s-13.9-19.3-15.3-25.2c-1.1-4.8-15.9-23.9-21.5-30.9c0.1,0.4,1.3,9.5,2.8,19.2c0.1,0.4,0.1,0.9,0.2,1.3
	c0,0.3,0.1,0.6,0.1,1c0.1,1,0.3,1.9,0.4,2.9c0,0.3,0.1,0.6,0.1,0.9c0.3,2.2,0.7,4.3,1,6.3c0.1,0.4,0.1,0.8,0.2,1.2
	c0.3,1.8,0.6,3.4,0.8,4.9c9.7,10.4,21.2,23.2,21.2,25c0,3.1,11.6,15.8,11.6,15.8s6.5,9.4,8.4,8.9s-1.2-5.4-1.2-5.4s3.2,3.3,5.4,3.8
	c2.2,0.6-2.7-6.3-2.7-6.3s5.8,3.3,7.7,3.3c2,0.1-2.3-5-2.3-5C463.2,1027.4,466.2,1026,462.4,1024.5z M369.1,1200.1
	c0,0,1.7,9,0.7,11.6c-0.1,0.3-0.2,0.6-0.4,0.9c0.7-0.4,1.2-0.5,1.4-0.5h0.1c0,3.3,5.3,5.5,9,5.7c0.1,0,0.1,0,0.2,0
	c0.2,0,0.3,0,0.5,0c0.1,0,0.1,0,0.2,0s0.2,0,0.3-0.1c0.1,0,0.1,0,0.2,0s0.2-0.1,0.3-0.1c0.1,0,0.1,0,0.2-0.1c0.1,0,0.2-0.1,0.3-0.1
	c0.1,0,0.1,0,0.2-0.1c0.1,0,0.2-0.1,0.3-0.1c0,0,0.1,0,0.1-0.1c0.1-0.1,0.2-0.1,0.3-0.2c0,0,0.1,0,0.1-0.1c0.1-0.1,0.2-0.1,0.3-0.2
	c0,0,0,0,0.1,0c1-0.7,1.9-1.6,2.8-2.2l0,0c0.1-0.1,0.2-0.1,0.3-0.2l0,0c0-0.1,0-0.1,0-0.2c0.1-2.3-0.6-42.6-0.6-42.6l-1-49.3
	c0,0,0.1-4.3,0.2-9.8c2.1-1.7,5-5,8.8-11.1c3.6-5.9,6.6-17.8,8.9-30.8c-7.8,2.1-15.9,3.1-15.9,3.1l0.1,4.4l0.2,7.1
	c-8.6,5.1-17.1,5.9-24.3,4.9c1.1,5,1.7,8.2,1.7,8.2s0.1,0.6,0.2,1.7c-1.2,3.2-3.6,7.2-8.3,10.7c-9.4,6.9-17.7,12.7-23.3,26.4
	s-20.1,23.6-24.2,25.1c-0.6,0.2-1.4,0.5-2.2,0.9l0,0c0.1,0.2,0.2,0.4,0.3,0.6c0,0.1,0.1,0.2,0.2,0.2c0.1,0.1,0.2,0.3,0.3,0.5
	c0.1,0.1,0.1,0.2,0.2,0.3c0.2,0.2,0.4,0.5,0.6,0.7c0.1,0.1,0.1,0.1,0.2,0.2c0.2,0.2,0.3,0.4,0.5,0.6c0.1,0.1,0.2,0.2,0.3,0.3
	c0.2,0.2,0.4,0.4,0.6,0.6c0.1,0.1,0.2,0.2,0.2,0.2c0.3,0.3,0.6,0.6,1,0.8c0.1,0.1,0.2,0.1,0.3,0.2c0.3,0.2,0.6,0.4,0.9,0.6
	c0.1,0.1,0.2,0.2,0.4,0.2c0.4,0.3,0.8,0.5,1.3,0.8c0.7,0.4,1.5,0.7,2.3,1h0.1c0.4,0.1,0.7,0.3,1.1,0.4c0.1,0,0.2,0,0.2,0.1
	c0.4,0.1,0.8,0.2,1.2,0.3c0.1,0,0.1,0,0.2,0c0.5,0.1,0.9,0.2,1.4,0.3c0.1,0,0.1,0,0.2,0c0.4,0.1,0.8,0.1,1.2,0.2c0.1,0,0.3,0,0.5,0
	c0.4,0,0.7,0.1,1.1,0.1c0.2,0,0.3,0,0.5,0c0.4,0,0.8,0,1.3,0l0,0c1.4-4.2,26.5-24,35.3-34.1c-0.7,9-0.6,18.6,0.3,21.2
	C362.2,1163.8,370.1,1194.4,369.1,1200.1z M328.3,1064.4c0,0,1.1,0.3,0.7-2.8c0,0,2.9,7.5,3.4,1.8c0,0,4.4,5.3,3.7,0
	c0,0,4.8,6.1,5.9,2.6c1.1-3.6-4.5-6.9-5-13.9c0,0,7.7,3,8.1-1.8c0,0-8.8-5.4-9.6-7.2c-0.7-1.8-2.9-1.1-3.5-9.2s6.5-16.3,5.5-39.1
	c0,0-1.2-11.2-0.9-14.2c0.1-1.4,1.9-6.3,4.3-11.6c-4.2,0.3-11,0.3-16-1.7c-2.8,7.2-5.1,12.6-6.1,13.8c-3.4,3.7,4.7,53.1,4.7,53.1
	S322.6,1060.1,328.3,1064.4z"></path>
<path id="color_x5F_4" fill="#00CEC9" d="M1267.2,1479.3l17.7,10.2l-114.2-65.9l108.8-62.8l-12.1,7L1267.2,1479.3z M1376.2,1304.9
	l0.2,131.7l-33.7,19.5v-131.8l-29.9,17.3v131.8l-28,16.2l205.5-118.7L1376.2,1304.9z M1264.6,1025.9v230.3l-299.2-172.7V853.1
	L1264.6,1025.9z M1246.3,1029.4L983.8,877.9v202l262.4,151.5v-202H1246.3z M766,1198.6l299.2,172.7l149.6-86.4l-299.1-172.8
	L766,1198.6z M1181.6,1208.2l-37.9,21.9l-142.1-82l37.9-21.9L1181.6,1208.2z M1640.6,1026.1c-7.1,12.4-27.9,47.1-42.8,52.3
	c-7,2.4-12.6,1-16.9-1.7c0.3,26.8,0.4,48,0.4,48l-0.1,2.2c-29.3,6.7-63.1,3.5-84.9-0.3l-0.3-5.8c0,0-0.1-3-0.2-8.1l-7.8-2.9
	c0,0,5.1-88,7.5-123.1s15.4-34.8,17.9-36.5l0,0c14.9-9.7,25.1-1.6,25.1-1.6v-5.1l21,3.5c0.9,3.7,1.8,7.2,1.8,7.2s11.1,3.7,15.3,11.1
	l0.2-0.2c0.8,0.4,25,11,22.4,73.6l18.9-18.4l16.4,9.5L1640.6,1026.1z"></path>
<path id="color_x5F_3" fill="#E84393" d="M416.5,1246.3c-3.6,7.6-15.7,6.3-19.6,6.7s-14.4-12.2-21.9-14.8c-7.5-2.7-8.5-4.1-8.5-4.1
	c-5.4-20.5,4.5-21.9,4.5-21.9c0,3.3,5.3,5.5,9,5.7c0.1,0,0.1,0,0.2,0c2.9,0,4.7-2.7,6.7-3.7l0,0c0.1-0.1,0.3-0.1,0.4-0.2h0.1
	c0.1,0,0.3-0.1,0.4-0.1h0.1c0.2,0,0.3,0,0.5,0c0.1,0,0.2,0,0.3,0c0.1,0,0.2,0.1,0.3,0.1l0,0c0.2,0.1,0.5,0.3,0.7,0.4l0,0l0,0
	c1.3,0.9,2.9,2.7,4.8,4.9l0,0l0,0c0.2,0.3,0.4,0.5,0.7,0.8c0,0,0,0,0,0.1c0.2,0.3,0.4,0.5,0.7,0.8c0,0,0,0,0,0.1
	c0.2,0.3,0.5,0.5,0.7,0.8l0,0c0.7,0.9,1.4,1.7,2.1,2.6c0.3,0.4,0.7,0.8,1,1.3c0.5,0.5,0.9,1.1,1.3,1.6l0,0c0.4,0.5,0.9,1,1.3,1.5
	c1.1,1.3,2.2,2.5,3.1,3.4c0.1,0.1,0.3,0.3,0.4,0.4C411.5,1237.7,420.1,1238.7,416.5,1246.3z M331.7,1198.1c0-0.1-0.1-0.1-0.1-0.2
	c-0.2-0.4-0.5-0.7-0.7-1.1c0,0,0-0.1-0.1-0.1c-0.2-0.4-0.4-0.7-0.6-1.1c0-0.1-0.1-0.1-0.1-0.2c-0.2-0.4-0.4-0.8-0.5-1.2
	c0,0,0-0.1-0.1-0.1c-0.2-0.5-0.4-1-0.5-1.5c0-0.1,0-0.1,0-0.2c-0.1-0.5-0.2-1-0.3-1.5c-0.1-0.4-0.1-0.9-0.1-1.3c0-0.1,0-0.2,0-0.3
	c0-0.5,0-1.1,0-1.6l0,0c0.1-2.2,0.1-4,0-5.7l0,0c0,0,0,0,0-0.1c0,0,0,0,0-0.1c0-0.3-0.1-0.6-0.1-0.9c0-0.2,0-0.4-0.1-0.6
	c0-0.3-0.1-0.6-0.1-0.9c0-0.1,0-0.3-0.1-0.4l0,0c-0.3-1.9-0.8-3.4-1.2-4.5c-0.3-0.7-0.6-1.3-0.9-1.7c-0.2-0.3-0.3-0.4-0.4-0.5
	s-0.2-0.2-0.2-0.2c-0.6,0-1.1,0-1.6,0c-0.2,0-0.3,0-0.5,0c-0.4,0-0.8,0-1.1-0.1c-0.2,0-0.3,0-0.5,0c-0.4,0-0.8-0.1-1.2-0.2
	c-0.1,0-0.1,0-0.2,0c-0.5-0.1-0.9-0.2-1.4-0.3c-0.1,0-0.1,0-0.2,0c-0.4-0.1-0.8-0.2-1.2-0.3c-0.1,0-0.2,0-0.2-0.1
	c-0.4-0.1-0.7-0.2-1.1-0.4h-0.1c-0.8-0.3-1.6-0.7-2.3-1c-5.9-3.2-7.8-8.3-7.8-8.3c-7.3-1-12.9,11.1-12.8,15.2
	c0.1,4,3.9,7.7,8.7,14.1c4.8,6.4,3.5,23.9,17.5,27.5s15.5-0.1,18.3-7.5c1.7-4.4-2.1-7.4-5.4-11.6
	C332.2,1198.9,331.9,1198.5,331.7,1198.1z M347.5,1019.1c0,0,17.3,11.4,39.6,5.9c22.2-5.5,29.3-16.2,29-16.2s-4.1-13.3-5.5-18.1
	c-0.2-0.5-0.4-1.5-0.6-2.8c0-0.1,0-0.3-0.1-0.4c-0.3-1.8-0.7-4.1-1.2-6.8c-0.1-0.4-0.1-0.8-0.2-1.2c-0.3-2-0.7-4.1-1-6.3
	c0-0.3-0.1-0.6-0.1-0.9c-0.1-0.9-0.3-1.9-0.4-2.9c-0.1-0.3-0.1-0.6-0.1-1c-0.1-0.4-0.1-0.9-0.2-1.3c-9.3,0.8-42.9,4.6-54.6,18.1
	c0,0.5,0,1,0,1.5s0,1,0,1.5c0,0.6,0,1.3,0,1.9C352.3,999.4,347.5,1019.1,347.5,1019.1z M406.2,911.4c0.1-17.6-6.2-17.3-7.6-17
	c-2.2,2.9-5.4,4.5-9.7,4.2c-1.6-0.1-3.2-0.4-4.7-1c-0.8,0.2-1.3,0.4-1.3,0.4c9.2,26.5-15.6,9.3-15.9,7.7c-0.2-1.6-4.7-1.2-4.7-1.2
	S337,918,335.6,918.7s-5.9,13.4-6.5,15.7s-10.2,27.2-10.2,27.2c3.3,10.5,26,7,26,7c-0.2-2.3,5.1-15.3,5.1-15.3s30.6-23.9,51.9-18.5
	l2,12.8c9.6-3.7,13.7-13.5,13.7-13.5S406.1,924.2,406.2,911.4z"></path>
<path id="color_x5F_2" fill="#FBC02D" d="M1598.7,1351c-10.2,12.1-44.1,8.6-46.3,7.6c-1.9-0.8-0.6-13.9-0.1-18.5c0,0.2,0,0.3,0,0.3
	c11.4,7.2,19-2.5,19-2.5v-0.5c0.8,0.7,1.4,1.3,1.4,1.3S1608.9,1339,1598.7,1351z M1525.9,1307.1c-0.1,2.8-0.2,4.3-0.3,4.2
	c-0.4-1.3-11.8,14-19,4.7v-0.1c-0.9,7.5-2,17.1-1.8,18.1c0.3,1.6,5.7,3.8,14.6,2.2c8.9-1.6,20.3-21.3,21.9-25.7
	C1542.4,1307.1,1531.7,1307,1525.9,1307.1z M1544,921.4c0,0-8.7-15.7,0.8-10.9s7.8,9.9,7.8,9.9l0.1,4.6h3.1c0,0-4-13.1,1.8-15.4
	c5.8-2.3,17-5,16.5-9.2c0,0,9.6-13.6-2.8-24.1s-26.7,1.4-26.7,1.4s-20.7-0.2-24,14.1c-3.2,14.3-3.8,15.3-1.2,21.7s2.1,12.1,8.4,12.2
	C1534.4,925.8,1541.8,929.4,1544,921.4z M1582.9,919.7c0,0-6.8-1.6-7.6,3.4s1.1,7,2.6,5.1c1.4-1.9,3.1,2.9,5.1-0.9
	C1584.9,923.6,1582.9,919.7,1582.9,919.7z M1514.5,1366.9v30.3l-236.6,136.6l-131.4-75.9v-30.3l131.4,75.9L1514.5,1366.9z
	 M891.8,774.9L640.1,627.8c-4.5-2.6-10-2.7-14.6-0.1l-9.1,5.2l267.3,156.3l-1.1,206.3l16.4-9.3l1.1-196.6
	C900.1,783.5,896.9,777.9,891.8,774.9z M882.6,995.4l-0.1,19.1l-179.2,103.8l-267.1-157l0.1-19.9l267.1,156.2L882.6,995.4z"></path>
<path id="color_x5F_1" fill="#0984E3" d="M415.2,1053.3l1.1,10.1c-3.4,6.9-29.4,10-29.4,10l0.1,4.4l0.2,7.1
	c-22.5,13.4-44-2.8-44-2.8c0.1-0.3,0.3-0.6,0.4-0.9c0-0.1,0.1-0.1,0.1-0.2c0.1-0.3,0.3-0.7,0.4-1v-0.1c0.1-0.4,0.2-0.7,0.4-1.1
	c0-0.1,0-0.1,0.1-0.2c0.1-0.4,0.3-0.9,0.4-1.4v-0.1c0.1-0.5,0.3-1,0.4-1.5l0,0c0.1-0.6,0.3-1.1,0.4-1.7c0,0,0,0,0-0.1
	c0.3-1.2,0.5-2.5,0.7-3.9l0,0c2.4-13.8,3.9-34.6,4.7-48.7c6.2,3,19.8,7.9,35.9,3.9c12.1-3,19.7-7.6,24.1-11.1L415.2,1053.3z
	 M409.3,829.8c0,0-4.7-16.7-20.1-8.2s-9,20.1-9,20.1c-9.5-5-13.9,5.4-13.9,5.4s-4-1.7-8.1,3.5c-4.2,5.2-0.6,10.8-0.6,10.8
	c-2.2,4.8,2.3,10.7,2.6,10.6c0.3-0.1,1.2-1.5,4,3.7c2.7,5.2,5,3.6,5,3.6s-5-8.2-0.4-9.8s4.4-6,4.4-6c9.8,3.2,16.2-1.7,16.2-1.7
	c6.2,1.2,9.5-0.5,11.2-2.1c1.4,2.4,3.1,6.9,3,11.1c-0.1,5.6,3.5-7.2,0.7-14.3C417.6,849.2,409.3,829.8,409.3,829.8z"></path>
</svg>